<?xml version="1.0" encoding="UTF-8"?><svg id="a" xmlns="http://www.w3.org/2000/svg" viewBox="0 0 17.575 9.782"><path d="M6.012,4.976c0,.471-.156,.583-.529,.673-.404,.101-.736,.18-1.078,.18-.321,0-.498-.191-.57-.494-.311,.168-.694,.381-1.451,.381-1.348,0-2.384-.808-2.384-2.322C0,1.733,1.545,.791,3.11,.791c.954,0,1.358,.247,1.534,.359,.218-.157,.674-.404,1.026-.404,.301,0,.404,.157,.404,.516,0,.438-.062,2.513-.062,3.714ZM3.639,1.678c-.124-.056-.197-.056-.321-.056-.446,0-.788,.269-.788,1.447,0,1.324,.332,1.616,.674,1.616,.218,0,.342-.045,.456-.134-.01-.943-.021-1.998-.021-2.872Z" style="fill:#606060;"/><path d="M9.147,8.101c-.86,0-1.545-.079-1.897-.135-.321-.045-.622-.112-.622-.751,0-1.279-.052-4.757-.052-5.935,0-.583,.156-.797,.622-.965,.57-.202,1.026-.314,1.399-.314,.446,0,.498,.393,.498,.841,0,.359,0,1.313-.041,2.569,.342-.146,.663-.258,1.358-.258,1.057,0,2.312,.718,2.312,2.289,0,1.627-1.213,2.659-3.576,2.659Zm.259-3.871c-.166,0-.249,.045-.363,.09-.031,.898-.041,2.008-.073,2.906,.788-.011,1.171-.303,1.171-1.481,0-1.279-.28-1.515-.736-1.515Z" style="fill:#606060;"/><path d="M17.336,9.446c-.425,.224-.964,.336-1.793,.336-1.358,0-2.82-.639-2.82-2.233,0-2.053,1.793-2.637,3.514-2.637,.228,0,.498,.045,.643,.056,.384,.045,.477,.18,.477,.528,0,.303-.156,.404-.301,.404-.135,0-.363-.045-.487-.045-.829,0-1.254,.437-1.254,1.459,0,.909,.56,1.369,1.161,1.369,.446,0,.653-.146,.829-.157,.156-.011,.27,.079,.27,.393,0,.258-.104,.46-.238,.528Z" style="fill:#606060;"/></svg>