<?xml version="1.0" encoding="UTF-8"?><svg id="a" xmlns="http://www.w3.org/2000/svg" viewBox="0 0 19.687 15"><path d="m18.939,5.473l-2.521-3.687c-1.023-1.495-2.708-2.075-3.92-1.348-.01.006-.019.014-.029.021-.693-.283-1.552-.459-2.624-.459s-1.93.176-2.624.46c-.01-.006-.019-.015-.03-.022-1.212-.727-2.897-.148-3.92,1.348L.749,5.473C.117,6.397-.137,7.518.071,8.47c.148.678.525,1.228,1.061,1.55l.455.273c.173.104.362.173.557.225.009.068.012.135.024.203.359,2.089,1.997,3.767,4.075,4.176.349.069.697.103,1.042.103.461,0,.918-.061,1.365-.184.78-.214,1.606-.214,2.388,0,.78.214,1.589.241,2.404.081,2.079-.408,3.718-2.086,4.078-4.175.012-.068.015-.137.024-.205.195-.052.384-.121.557-.225l.455-.273c.535-.321.912-.872,1.06-1.55.208-.952-.045-2.073-.677-2.997ZM1.604,9.233c-.405-.243-.569-.656-.636-.959-.155-.71.046-1.564.538-2.283l2.521-3.687c.576-.841,1.426-1.305,2.142-1.243-1.156.889-1.572,2.154-1.712,3.06-.125.807-.506,1.589-1.132,2.324-.741.87-1.163,1.951-1.225,3.08-.013-.007-.028-.011-.041-.019l-.455-.273Zm9.186,4.199c.085-.155.146-.324.146-.513,0-.603-.489-1.091-1.091-1.091s-1.091.488-1.091,1.091c0,.189.061.358.145.513-.884-.371-1.507-1.245-1.507-2.263,0-1.353,1.1-2.453,2.454-2.453s2.453,1.101,2.453,2.453c0,1.018-.623,1.892-1.507,2.263Zm2.475.564c-.547.107-1.089.107-1.617.012.94-.598,1.567-1.643,1.567-2.839,0-1.862-1.509-3.371-3.371-3.371s-3.371,1.509-3.371,3.371c0,1.197.628,2.241,1.567,2.839-.529.095-1.072.095-1.619-.012-1.708-.336-3.053-1.715-3.348-3.431-.219-1.273.128-2.558.953-3.525.738-.867,1.19-1.801,1.341-2.779.235-1.525,1.203-3.343,4.479-3.343s4.249,1.819,4.481,3.345c.148.973.599,1.908,1.34,2.779.823.967,1.169,2.252.95,3.525-.296,1.716-1.642,3.095-3.35,3.43Zm5.454-5.722c-.066.303-.23.715-.636.959l-.455.273c-.013.008-.028.011-.041.019-.062-1.128-.483-2.207-1.223-3.077-.628-.739-1.009-1.52-1.131-2.322-.138-.908-.552-2.174-1.711-3.065.715-.06,1.564.404,2.138,1.244l2.521,3.687c.492.72.693,1.573.538,2.283Z" style="fill:#606060;"/><path d="m13.987,7.529c0,.517-.419.936-.936.936s-.935-.419-.935-.936.419-.936.935-.936.936.419.936.936Zm-7.351-.936c-.517,0-.936.419-.936.936s.419.936.936.936.936-.419.936-.936-.419-.936-.936-.936Z" style="fill:#606060;"/></svg>