<?xml version="1.0" encoding="UTF-8"?><svg id="a" xmlns="http://www.w3.org/2000/svg" viewBox="0 0 15 15"><path d="m7.5,0C3.364,0,0,3.364,0,7.5s3.364,7.5,7.5,7.5,7.5-3.364,7.5-7.5S11.636,0,7.5,0Zm0,14.146c-3.665,0-6.647-2.982-6.647-6.646S3.835.853,7.5.853s6.646,2.982,6.646,6.646-2.981,6.646-6.646,6.646Z" style="fill:#606060;"/><path d="m4.784,7.059c-.636,0-1.153-.517-1.153-1.153s.517-1.153,1.153-1.153,1.153.517,1.153,1.153-.517,1.153-1.153,1.153Zm5.249-2.306c-.636,0-1.153.517-1.153,1.153s.517,1.153,1.153,1.153,1.153-.517,1.153-1.153-.517-1.153-1.153-1.153Z" style="fill:#606060;"/><path d="m10.079,9.202h-5.158c-.235,0-.427.191-.427.427,0,1.253,1.32,2.234,3.006,2.234s3.006-.981,3.006-2.234c0-.236-.191-.427-.427-.427Z" style="fill:#606060;"/></svg>