<?xml version="1.0" encoding="UTF-8"?><svg id="a" xmlns="http://www.w3.org/2000/svg" viewBox="0 0 11.617 15"><path d="m10.987,2.261c-.536.289-1.08.482-1.989.482-1.174,0-1.752-.336-2.364-.692-.651-.379-1.389-.808-2.793-.808-.941,0-1.581.194-2.098.435.162-.178.267-.41.267-.67C2.011.512,1.646.12,1.175.036c-.052-.023-.109-.036-.17-.036-.06,0-.118.013-.17.036-.471.084-.835.476-.835.971,0,.401.239.741.578.903v12.663c0,.236.191.427.427.427s.427-.191.427-.427v-3.439l.045-.025c.612-.356,1.19-.693,2.365-.693s1.752.336,2.364.692c.651.379,1.389.808,2.793.808,1.151,0,1.831-.28,2.394-.583.138-.074.225-.219.225-.376V2.636c0-.15-.079-.289-.208-.366-.129-.077-.289-.081-.421-.009Zm-.224,8.436c-.47.224-.982.367-1.765.367-1.174,0-1.752-.336-2.364-.692-.651-.379-1.389-.808-2.793-.808-1.138,0-1.839.282-2.41.59V2.814l.045-.026c.612-.356,1.19-.693,2.365-.693s1.752.336,2.364.692c.651.379,1.389.808,2.793.808.76,0,1.314-.122,1.765-.292v7.393Z" style="fill:#606060;"/></svg>