<?xml version="1.0" encoding="UTF-8"?><svg id="a" xmlns="http://www.w3.org/2000/svg" viewBox="0 0 16.015 15"><path d="m15.508,8.901c-.058-.062-.13-.095-.206-.115.277-.838.091-1.548.081-1.588-.013-.048-.037-.089-.064-.128.061-.027.105-.046.109-.048.217-.093.317-.345.224-.561-.027-.062-.068-.111-.116-.153.176-.209.23-.381.246-.467.005-.025.007-.051.007-.077C15.787,1.214,10.897,0,8.007,0S.228,1.214.235,5.842c.016.086.07.258.246.467-.048.041-.09.09-.116.152-.093.217.007.468.224.561.003.001.047.02.109.048-.027.039-.051.08-.064.128-.011.039-.197.749.081,1.588-.076.02-.149.053-.206.115-.803.863-.523,1.357-.048,2.057-.136.034-.256.127-.305.27-.013.04-.323.989.359,1.942.871,1.215,2.893,1.831,6.01,1.831h2.966c3.117,0,5.139-.616,6.01-1.831.683-.953.373-1.902.359-1.942-.049-.143-.168-.236-.305-.269.476-.7.756-1.194-.048-2.057Zm-.95-1.477c.002.009.232.888-.394,1.708-.736.964-2.386,1.474-4.77,1.474h-.796c2.376-1.466,4.732-2.619,5.959-3.189,0,.003,0,.005,0,.007Zm-6.55,2.54c-1.438-.895-2.874-1.676-4.077-2.29,1.041.161,2.368.265,4.077.265s3.037-.104,4.077-.265c-1.203.615-2.639,1.396-4.077,2.29Zm0-9.109c.705,0,6.853.136,6.924,4.828-.127.207-1.117,1.401-6.924,1.401s-6.797-1.195-6.924-1.401C1.154.991,7.303.855,8.007.855Zm-.59,9.751h-.796c-2.374,0-4.021-.506-4.761-1.462-.628-.811-.411-1.686-.402-1.72,0-.002,0-.005,0-.007,1.226.57,3.581,1.722,5.959,3.189Zm-6.246-.955c.917,1.201,2.751,1.81,5.45,1.81h2.772c2.699,0,4.533-.609,5.45-1.81.031-.041.05-.082.078-.123.328.355.313.385-.134,1.04l-.107.157c-.059.088-.117.196-.179.315-.186.355-.378.723-.897.89-.145.047-.407.001-.686-.047-.36-.062-.768-.134-1.211-.073-.316.043-.611.196-.895.344-.298.155-.607.316-.912.331-.195.006-.453-.087-.726-.19-.346-.13-.738-.278-1.169-.278s-.822.148-1.168.278c-.273.103-.532.201-.726.19-.306-.016-.615-.176-.914-.332-.284-.148-.579-.301-.895-.344-.443-.06-.852.01-1.212.072-.278.048-.542.094-.687.046-.516-.167-.708-.533-.892-.888-.062-.119-.12-.227-.179-.315l-.108-.158c-.446-.653-.46-.684-.132-1.038.028.041.047.083.078.124Zm13.623,3.037c-.489.665-1.806,1.458-5.304,1.458h-2.966c-3.498,0-4.815-.793-5.304-1.458-.265-.361-.304-.714-.293-.939.221.367.562.781,1.214.992.346.112.71.049,1.095-.017.314-.054.639-.11.953-.068.169.023.386.136.616.255.362.188.773.402,1.265.427.024.001.048.002.072.002.346,0,.677-.125.999-.246.304-.115.591-.223.867-.223s.563.108.868.223c.344.129.698.262,1.071.244.492-.025.902-.239,1.264-.427.229-.119.446-.232.614-.255.312-.041.637.014.95.068.385.066.748.129,1.094.018.655-.211.997-.627,1.219-.995.011.227-.027.58-.292.941Z" style="fill:#606060;"/><path d="m9.526,5.89c-.087-.22.021-.468.241-.554l.541-.213c.22-.087.468.022.554.241.086.22-.022.468-.241.554l-.542.213c-.051.02-.104.03-.156.03-.171,0-.332-.103-.398-.271Zm1.678-1.889l.514.278c.065.035.134.052.203.052.152,0,.299-.081.376-.224.113-.208.035-.467-.172-.58l-.514-.278c-.208-.113-.467-.035-.58.172-.112.208-.035.467.172.58Zm-2.917-.876l.494.315c.071.045.151.067.23.067.141,0,.279-.07.361-.198.127-.199.068-.463-.131-.59l-.494-.315c-.199-.126-.463-.068-.59.131-.127.199-.068.463.131.59Zm-2.819.395c.115,0,.229-.046.313-.137l.403-.435c.161-.173.15-.444-.023-.604s-.444-.15-.604.023l-.403.435c-.16.173-.15.444.023.604.082.076.187.114.291.114Zm-1.749,1.973l.578.022c.005,0,.011,0,.016,0,.229,0,.418-.181.427-.411.009-.236-.175-.435-.411-.444l-.578-.022c-.234-.005-.434.175-.443.411-.009.236.175.435.411.444Zm3.329.559c.014.001.028.002.042.002.217,0,.404-.165.425-.386l.059-.603c.023-.235-.149-.444-.384-.467-.233-.024-.444.149-.467.384l-.059.603c-.023.235.149.444.384.467Z" style="fill:#606060;"/></svg>