<?xml version="1.0" encoding="UTF-8"?><svg id="a" xmlns="http://www.w3.org/2000/svg" viewBox="0 0 11.038 15"><path d="m5.519,0C2.476,0,0,2.476,0,5.519c0,1.836.91,3.547,2.433,4.577.006.004.08.046.086.05.215.129.919.629.919,1.66,0,0,0,0,0,0v2.767c0,.236.191.427.427.427h3.308c.236,0,.427-.191.427-.427v-2.767h0c0-.966.613-1.464.876-1.633,1.604-1.021,2.563-2.761,2.563-4.655,0-3.043-2.476-5.519-5.519-5.519Zm1.227,14.146h-2.455v-1.913h2.455v.531s-.004-.001-.006-.001h-1.481c-.236,0-.427.191-.427.427s.191.427.427.427h1.481s.004-.001.006-.001v.531Zm1.27-4.692c-.341.219-1.084.814-1.241,1.925h-2.513c-.171-1.195-1.029-1.8-1.352-1.991-1.288-.87-2.057-2.316-2.057-3.869C.853,2.946,2.946.853,5.519.853s4.665,2.093,4.665,4.665c0,1.601-.81,3.072-2.168,3.936Z" style="fill:#606060;"/><path d="m8.118,7.437c-.221-.083-.467.029-.55.249-.003.01-.382.966-1.086.966-.245,0-.441-.123-.593-.314.677-1.016,1.245-2.481,1.204-3.245-.013-.248-.129-.468-.327-.618-.209-.159-.506-.232-.741-.181-1.086.239-1.526,1.724-1.387,3.001.04.366.123.697.241.985-.133.159-.257.272-.359.316-.156.068-.29.074-.423.02-.325-.132-.567-.583-.633-.745-.089-.218-.337-.324-.555-.236-.218.088-.325.334-.238.553.037.094.384.923,1.098,1.216.346.143.724.134,1.091-.026.158-.069.323-.194.489-.362.307.314.693.49,1.131.49,1.3,0,1.862-1.457,1.885-1.519.083-.221-.029-.467-.25-.549Zm-2.63-.234c-.108-.997.229-1.967.753-2.064.027.513-.323,1.427-.738,2.189-.006-.042-.011-.083-.016-.124Z" style="fill:#606060;"/></svg>