<?xml version="1.0" encoding="UTF-8"?><svg id="a" xmlns="http://www.w3.org/2000/svg" viewBox="0 0 15.644 15"><path d="m4.001,3.945c0-.496.403-.899.899-.899s.899.403.899.899-.403.899-.899.899-.899-.403-.899-.899Zm4.316.899c.496,0,.899-.403.899-.899s-.403-.899-.899-.899-.899.403-.899.899.403.899.899.899Z" style="fill:#606060;"/><path d="m5.369,6.306c-.132-.195-.398-.246-.593-.114-.195.132-.246.398-.114.593.167.247.376.459.621.629.41.285.888.434,1.377.434.143,0,.288-.013.431-.038.636-.114,1.19-.469,1.559-.999.135-.193.087-.459-.107-.594-.193-.134-.459-.087-.594.106-.239.343-.597.573-1.009.647-.411.073-.827-.018-1.17-.256-.158-.11-.294-.247-.402-.407Z" style="fill:#606060;"/><path d="m15.016,6.264c-.483-.302-1.047-.249-1.474.139-.276.252-.577.4-.808.486-.026-.051-.059-.102-.1-.151-.125-.15-.364-.325-.801-.319-.128.003-.241.03-.35.064.139-.46.215-.947.215-1.452,0-2.774-2.257-5.031-5.03-5.031S1.637,2.257,1.637,5.031c0,1.719.867,3.237,2.187,4.145-2.256.852-3.824,2.677-3.824,4.792,0,.236.191.427.427.427h10.042c.334.391.798.605,1.357.605.598,0,1.092-.235,1.429-.681,1.018-1.344.359-4.294.141-5.143,1.561-.292,2.056-1,2.202-1.496.154-.523-.085-1.106-.581-1.416Zm-2.189,6.954c-.06.225-.136.432-.253.587-.056.074-.131.114-.2.164-.15.107-.321.178-.549.178s-.4-.072-.549-.178c-.07-.05-.144-.09-.2-.164-.056-.074-.095-.171-.137-.263-.303-.662-.271-1.734-.138-2.696.023-.164.046-.321.073-.475.028-.16.056-.314.086-.457.03-.142.06-.28.089-.399h1.552c.163.668.354,1.74.347,2.688-.003.37-.041.714-.121,1.014Zm-8.926.324v-1.228c0-.236-.191-.427-.427-.427s-.427.191-.427.427v1.228H.88c.223-1.793,1.843-3.275,4.012-3.81.553.209,1.15.329,1.775.329s1.222-.12,1.775-.329c.566.139,1.092.343,1.568.601-.164.963-.273,2.235.015,3.209H3.901ZM6.668.853c2.303,0,4.177,1.874,4.177,4.177,0,1.7-1.024,3.16-2.484,3.811-.292.13-.599.227-.921.288-.25.047-.507.078-.771.078s-.521-.031-.771-.078c-.322-.061-.63-.158-.921-.288-1.46-.651-2.484-2.111-2.484-3.811C2.491,2.727,4.365.853,6.668.853Zm3.629,8.165c-.024.086-.064.238-.113.449-.216-.107-.44-.204-.672-.292.277-.191.533-.409.766-.65-.011.104-.021.207-.024.3-.003.07.016.133.043.193Zm4.482-1.58c-.168.573-1.214,1.119-3.626,1.004.081-.488.281-1.164.697-1.172.085-.001.126.012.128.061-.028.135.01.275.104.377.093.101.23.151.367.134.037-.005.91-.121,1.667-.81.142-.129.292-.144.447-.047.143.089.267.278.215.452Z" style="fill:#606060;"/></svg>