<?xml version="1.0" encoding="UTF-8"?><svg id="a" xmlns="http://www.w3.org/2000/svg" viewBox="0 0 17.906 15"><path d="m17.846,3.248c-.226-1.172-1.144-2.136-2.304-2.419-.262-.064-.519-.094-.77-.094-.342,0-.67.056-.977.159-.198.066-.402.097-.605.097-.32,0-.639-.078-.933-.223-.996-.491-2.117-.768-3.303-.768s-2.307.277-3.303.768c-.294.145-.613.223-.933.223-.204,0-.407-.032-.606-.098-.307-.102-.635-.159-.977-.159-.25,0-.508.03-.77.094C1.204,1.112.286,2.076.06,3.248c-.212,1.094.15,2.103.833,2.799.377.384.561.905.56,1.443v.01c0,4.142,3.358,7.5,7.5,7.5s7.5-3.358,7.5-7.5v-.01c0-.539.183-1.058.56-1.443.683-.696,1.045-1.705.833-2.799Zm-1.442,2.202c-.52.53-.805,1.255-.804,2.05,0,3.665-2.982,6.647-6.647,6.647s-6.647-2.982-6.647-6.656c.001-.787-.284-1.512-.804-2.042-.53-.541-.751-1.284-.604-2.04.163-.844.833-1.548,1.669-1.752.19-.046.38-.07.567-.07.241,0,.479.039.707.115.282.094.576.142.875.142.444,0,.897-.107,1.31-.311.916-.451,1.901-.68,2.926-.68s2.01.229,2.927.681c.413.203.866.31,1.31.31.299,0,.594-.047.875-.141.229-.076.466-.115.707-.115.187,0,.378.023.567.07.836.204,1.506.908,1.669,1.752.146.756-.074,1.499-.604,2.04Z" style="fill:#606060;"/><path d="m8.953,7.717c-1.731,0-3.134,1.403-3.134,3.134s1.403,3.134,3.134,3.134,3.134-1.403,3.134-3.134-1.403-3.134-3.134-3.134Zm.88,5.238c.079-.144.135-.301.135-.477,0-.56-.454-1.015-1.015-1.015s-1.015.454-1.015,1.015c0,.176.056.333.135.477-.822-.345-1.402-1.158-1.402-2.104,0-1.258,1.023-2.281,2.281-2.281s2.281,1.023,2.281,2.281c0,.946-.579,1.759-1.402,2.104Z" style="fill:#606060;"/><path d="m12.805,7.532c0,.481-.389.87-.87.87s-.87-.389-.87-.87.39-.87.87-.87.87.39.87.87Zm-5.964,0c0-.48-.389-.87-.87-.87s-.87.39-.87.87.389.87.87.87.87-.389.87-.87Z" style="fill:#606060;"/></svg>