<?xml version="1.0" encoding="UTF-8"?><svg id="a" xmlns="http://www.w3.org/2000/svg" viewBox="0 0 15 15"><path d="m7.5,0C3.364,0,0,3.364,0,7.5s3.364,7.5,7.5,7.5,7.5-3.364,7.5-7.5S11.636,0,7.5,0Zm0,14.147c-3.665,0-6.647-2.982-6.647-6.647S3.835.853,7.5.853s6.646,2.982,6.646,6.647-2.981,6.647-6.646,6.647Z" style="fill:#606060;"/><path d="m11.338,11.764c-.109,0-.218-.042-.302-.125l-3.838-3.838c-.08-.08-.125-.188-.125-.302V2.876c0-.236.191-.427.427-.427s.427.191.427.427v4.447l3.713,3.713c.167.167.167.437,0,.603-.083.083-.193.125-.302.125Z" style="fill:#606060;"/></svg>