<?xml version="1.0" encoding="UTF-8"?><svg id="a" xmlns="http://www.w3.org/2000/svg" viewBox="0 0 12.769 15"><path d="m10.676,9.682c-.528,0-1,.301-1.321.711-.321-.41-.793-.711-1.321-.711-.971,0-1.753.922-1.753,1.732-.003.618-.01,1.905,2.873,3.418.063.033.132.05.201.05.069,0,.138-.016.201-.05,2.882-1.513,2.876-2.8,2.873-3.465,0-.763-.782-1.685-1.753-1.685Z" style="fill:#606060;"/><path d="m11.864.883c-.419-.313-1.775-1.51-1.959-.46v4.244c-.577-.154-1.337.039-1.971.568-.892.745-1.19,1.859-.664,2.49.526.63,1.676.537,2.568-.208.63-.526.956-1.233.913-1.827.007-.032.019-.059.019-.096V1.049c1.783.793,2.016,2.317.485,3.872-.089.095.05.239.147.151,1.377-1.1,2.014-2.9.462-4.189Z" style="fill:#606060;"/><path d="m1.342,3.609v3.566c0,.239.193.432.432.432h1.986c.239,0,.432-.194.432-.432v-3.566h.909c.174,0,.331-.104.398-.265.067-.16.032-.346-.09-.47L3.076.49c-.081-.083-.193-.13-.309-.13s-.228.047-.309.13L.123,2.874c-.122.124-.157.31-.089.47s.225.265.398.265h.909Z" style="fill:#606060;"/><path d="m4.713,13.382c.528-.574.889-1.113.966-1.232.13-.2.074-.467-.126-.598-.2-.13-.468-.074-.598.126-.165.253-.479.677-.867,1.099l-1.054-1.021c1.009-.621,1.122-1.372,1.122-1.677,0-.969-.86-1.492-1.669-1.492-.424,0-.821.133-1.12.373-.353.284-.547.706-.547,1.188,0,.7.526,1.236.793,1.459-.295.192-.605.409-.807.591-.322.291-.507.715-.507,1.164,0,.429.166.824.455,1.082.438.392.966.561,1.528.487.649-.085,1.277-.48,1.813-.947l.92.893c.084.082.192.122.301.122.113,0,.225-.044.31-.131.166-.171.162-.445-.009-.611l-.905-.876Zm-2.803-3.748c.144-.116.354-.182.578-.182.278,0,.804.131.804.627,0,.131-.061.593-.861,1.027-.005.003-.019.011-.043.025l-.081-.079c-.161-.109-.622-.51-.622-.904,0-.224.074-.393.225-.515Zm.259,4.441c-.316.04-.583-.046-.837-.274-.103-.092-.167-.261-.167-.44,0-.204.08-.394.221-.521.198-.178.559-.421.885-.627l1.2,1.164c-.421.36-.876.641-1.302.697Z" style="fill:#606060;"/></svg>