<?xml version="1.0" encoding="UTF-8"?><svg id="a" xmlns="http://www.w3.org/2000/svg" viewBox="0 0 15.998 15"><path d="m15.918,4.611l-.053-.185c-.039-.138-.1-.263-.169-.38-.006-.01-.013-.02-.019-.03-.13-.21-.299-.382-.502-.486-.25-.128-.526-.149-.777-.057l-.157.057-.55-3.07c-.03-.17-.129-.315-.272-.397-.109-.063-.305-.082-.424-.039l-.524.19c-.124.045-.273.207-.313.332l-1.346,4.171c-.006.019.002.038-.002.057l-2.463.894.19-3.626c.026-.229-.058-.444-.226-.577-.104-.082-.33-.202-.672-.078l-1.173.426c-.186.067-.327.221-.407.475-.302,1.381-.668,3.042-1.008,4.575l-2.211.802c-.707.256-1.335.754-1.816,1.439-.512.728-.846,1.648-.967,2.661l-.032.27c-.042.351-.032.712.006,1.073,0,.008-.003.016-.002.025.032.296.077.541.137.769.008.029.013.061.02.089.068.238.187.444.337.612.104.117.221.217.354.285.147.075.303.113.458.113.108,0,.216-.019.319-.056l5.013-1.819c1.396-.506,2.716-1.198,3.954-2.071.309-.218.614-.447.913-.688.897-.721,1.745-1.543,2.543-2.463l.122-.14,1.489-1.718c.069-.08.126-.172.172-.27.003-.006.008-.01.011-.017.018-.039.024-.083.038-.124.051-.146.08-.303.086-.466.005-.162-.014-.33-.061-.496l-.018-.061ZM1.364,14.14c-.01.004-.039.014-.096-.015-.086-.044-.198-.164-.257-.369-.033-.119-.061-.245-.085-.386l.014-.005,5.432-1.974,1.304-.474.026-.009c.783-.351,2.75-1.468,3.808-2.66l3.545-3.544.058.203c.043.152.037.294.008.407-.018.07-.044.132-.077.171l-.805.929-.805.929c-1.015,1.171-2.115,2.175-3.294,3.006-.022.015-.045.029-.067.044-.569.398-1.155.757-1.758,1.074-.627.329-1.273.614-1.936.855l-5.013,1.819h0Zm4.646-7.624c.238-1.084.522-2.382.862-3.94l.8-.29-.194,3.697-.049.927-.17,3.25-2.262.82c.165-.652.408-1.722.795-3.476.068-.309.14-.635.218-.988Zm5.802-2.105l1.106-3.428.509,2.842-1.269.461-.345.125Zm-.321,1.026s0,0,0,0l1.787-.648.699-.254h0s0,0,0,0h0s.058-.021.058-.021l-3.149,3.149c-.676.76-1.846,1.555-2.753,2.066l.165-3.133,3.19-1.157ZM1.726,9.595c.38-.541.867-.931,1.408-1.127l1.7-.617c-.365,1.641-.672,2.998-.791,3.477l-3.172,1.152c.003-.115-.008-.232.005-.345l.032-.27c.002-.015.006-.028.008-.043l1.935-.731c.441-.196.553-.479.444-.715l-.32-.691c-.144-.278-.434-.409-.833-.249l-.429.181c.005-.007.008-.015.013-.022Z" style="fill:#606060;"/></svg>